<svg width="40" height="40" viewBox="0 0 40 40" fill="none" xmlns="http://www.w3.org/2000/svg">
<path d="M20 40C31.0457 40 40 31.0457 40 20C40 8.9543 31.0457 0 20 0C8.9543 0 0 8.9543 0 20C0 31.0457 8.9543 40 20 40Z" fill="#FC631B"/>
<path d="M19.792 32.8625C27.0407 32.8625 32.917 26.9863 32.917 19.7375C32.917 12.4888 27.0407 6.61255 19.792 6.61255C12.5433 6.61255 6.66699 12.4888 6.66699 19.7375C6.66699 26.9863 12.5433 32.8625 19.792 32.8625Z" fill="#FF9B6C"/>
<path d="M19.8955 26.3513C23.5199 26.3513 26.458 23.4132 26.458 19.7888C26.458 16.1644 23.5199 13.2263 19.8955 13.2263C16.2711 13.2263 13.333 16.1644 13.333 19.7888C13.333 23.4132 16.2711 26.3513 19.8955 26.3513Z" fill="white"/>
</svg>
