<svg width="157" height="64" viewBox="0 0 157 64" fill="none" xmlns="http://www.w3.org/2000/svg">
<g clip-path="url(#clip0_941_1016)">
<path d="M144.78 39.4834H12.2148V40.9408H144.78V39.4834Z" fill="black"/>
<path d="M154.739 2.32952V61.6705H2.25554V2.32952H154.739ZM156.995 0H0V64H157V0H156.995Z" fill="black"/>
<path d="M12.2148 11.9131H30.2864C33.0868 11.9131 35.0699 12.3801 36.2413 13.3142C37.4126 14.2482 38.001 15.4524 38.001 16.9266V17.3374C38.001 18.007 37.8812 18.6091 37.6469 19.1492C37.4126 19.6894 37.0912 20.1227 36.6989 20.449C36.3067 20.7754 35.9416 21.023 35.6202 21.203C35.2988 21.3775 34.9773 21.5181 34.6559 21.6138C35.1081 21.732 35.5548 21.9008 35.9907 22.1146C36.4265 22.3284 36.906 22.6379 37.4399 23.043C37.9738 23.4482 38.3933 23.9996 38.7148 24.7086C39.0362 25.4176 39.1942 26.2222 39.1942 27.1281V27.5389C39.1942 31.7478 36.2794 33.8522 30.4553 33.8522H12.2148V11.9131ZM18.8235 20.1114H29.1478C30.6787 20.1114 31.4469 19.5206 31.4469 18.339V18.2827C31.4469 17.1236 30.6787 16.544 29.1478 16.544H18.8235V20.1114ZM18.8235 24.7705V29.075H29.7144C30.695 29.075 31.3761 28.8612 31.7574 28.4279C32.1334 27.9947 32.3241 27.4939 32.3241 26.9256V26.8074C32.3241 25.4513 31.4523 24.7705 29.7144 24.7705H18.8235Z" fill="black"/>
<path d="M63.9615 11.9131V16.8985H48.249V20.1452H63.5965V25.1587H48.249V28.7599H64.2503V33.8635H41.7275V11.9131H63.967H63.9615Z" fill="black"/>
<path d="M73.7569 11.9971V28.4444H88.3853V33.8912H67.1592V11.9971H73.7515H73.7569Z" fill="black"/>
<path d="M98.4156 25.687H96.4107V33.8797H90.4014V12.2275H96.4107V19.1655H98.6771L106.234 12.2275H113.867L102.834 22.1196L114.384 33.8797H106.55L98.4211 25.687H98.4156Z" fill="black"/>
<path d="M144.779 33.8465H138.307L136.504 29.8908H122.742L120.938 33.8465H114.466L124.725 12.1943H134.515L144.774 33.8465H144.779ZM124.959 25.0011H134.286L130.652 17.0503H128.593L124.959 25.0011Z" fill="black"/>
<path d="M12.2144 46.5681H16.7637C17.4665 46.5681 17.9677 46.6863 18.2619 46.9226C18.5561 47.1589 18.7032 47.4628 18.7032 47.8342V47.9355C18.7032 48.1043 18.676 48.2562 18.616 48.3912C18.5561 48.5263 18.4744 48.6388 18.3763 48.7176C18.2782 48.7964 18.1856 48.8639 18.1039 48.9089C18.0222 48.9539 17.9405 48.9877 17.8587 49.0102C17.9732 49.0383 18.0876 49.0833 18.1965 49.134C18.3055 49.1902 18.4253 49.269 18.5616 49.3703C18.6923 49.4716 18.8013 49.6123 18.883 49.7923C18.9647 49.9724 19.0029 50.1749 19.0029 50.4V50.5013C19.0029 51.5592 18.2674 52.0881 16.8018 52.0881H12.209V46.5625L12.2144 46.5681ZM13.8761 48.6332H16.4749C16.8617 48.6332 17.0524 48.4869 17.0524 48.1887V48.1718C17.0524 47.8792 16.8617 47.7329 16.4749 47.7329H13.8761V48.6332ZM13.8761 49.8092V50.8952H16.6166C16.8617 50.8952 17.0361 50.8389 17.1287 50.732C17.2213 50.6251 17.2703 50.4957 17.2703 50.355V50.3269C17.2703 49.9836 17.0524 49.8148 16.6111 49.8148H13.8707L13.8761 49.8092Z" fill="black"/>
<path d="M25.6284 50.6024V52.0991H24.1193V51.1313C24.1193 50.7937 24.043 50.5517 23.8959 50.3998C23.7434 50.2479 23.4873 50.1747 23.1223 50.1747H21.1609V52.0991H19.6572V46.6748H23.5309C24.9202 46.6748 25.6175 47.1418 25.6175 48.0815V48.1716C25.6175 48.7455 25.3179 49.1394 24.724 49.3588C24.9964 49.4489 25.2144 49.5952 25.3833 49.7977C25.5521 50.0059 25.6339 50.2704 25.6339 50.6024H25.6284ZM24.0376 48.4304C24.0376 48.2728 23.9885 48.149 23.8905 48.0534C23.7924 47.9577 23.6398 47.9071 23.4328 47.9071H21.1555V48.9706H23.4328C23.6398 48.9706 23.7924 48.9199 23.8905 48.8243C23.9885 48.7286 24.0376 48.5992 24.0376 48.436V48.4304Z" fill="black"/>
<path d="M33.5708 52.0872H31.9418L31.4896 51.0912H28.0246L27.5724 52.0872H25.9434L28.5258 46.6348H30.9938L33.5763 52.0872H33.5708ZM28.5803 49.859H30.9284L30.0131 47.8558H29.4956L28.5803 49.859Z" fill="black"/>
<path d="M35.8328 46.585L39.2162 50.0511V46.585H40.8561V52.0993H39.2162L35.6204 48.4475V52.0993H33.9805V46.585H35.8328Z" fill="black"/>
<path d="M45.2134 46.5681C45.7092 46.5681 46.156 46.6019 46.5537 46.6694C46.9514 46.7369 47.2892 46.8382 47.5562 46.9676C47.8231 47.0971 48.0519 47.2434 48.2426 47.4065C48.4333 47.5697 48.5804 47.7498 48.6785 47.9523C48.7766 48.1549 48.8528 48.3575 48.8964 48.5488C48.94 48.7457 48.9618 48.9539 48.9618 49.179V49.4041C48.9618 49.6685 48.9345 49.9105 48.8746 50.1412C48.8201 50.3719 48.7057 50.6082 48.5368 50.8558C48.3679 51.1034 48.15 51.3116 47.8831 51.486C47.6161 51.6604 47.2565 51.8011 46.7989 51.9193C46.3412 52.0318 45.8182 52.0881 45.2189 52.0881H41.6885V46.5625H45.208L45.2134 46.5681ZM43.3556 50.7658H45.0827C46.5047 50.7658 47.2184 50.2931 47.2184 49.3422V49.2972C47.2184 48.3518 46.5047 47.8792 45.0827 47.8792H43.3556V50.7658Z" fill="black"/>
<path d="M54.9761 46.585V50.7263H58.6591V52.0993H53.3145V46.585H54.9761Z" fill="black"/>
<path d="M62.9206 46.4883C63.3837 46.4883 63.7978 46.522 64.1737 46.5896C64.5496 46.6571 64.8656 46.7415 65.1162 46.854C65.3723 46.9609 65.5902 47.096 65.7809 47.2535C65.9716 47.4111 66.1187 47.5686 66.2277 47.7262C66.3366 47.8837 66.4238 48.0582 66.4892 48.2439C66.5546 48.4295 66.5981 48.5984 66.6199 48.7503C66.6363 48.8966 66.6472 49.0541 66.6472 49.2173V49.4424C66.6472 49.5999 66.6363 49.7519 66.6199 49.9038C66.6036 50.0557 66.56 50.2189 66.4892 50.4102C66.4238 50.6015 66.3366 50.776 66.2331 50.9391C66.1296 51.1023 65.9825 51.2599 65.7864 51.423C65.5957 51.5862 65.3723 51.7213 65.1217 51.8282C64.8711 51.9407 64.5551 52.0307 64.1792 52.0983C63.8032 52.1658 63.3837 52.1995 62.9206 52.1995H62.6973C62.2342 52.1995 61.8146 52.1658 61.4387 52.0983C61.0574 52.0307 60.7414 51.9407 60.4907 51.8282C60.2401 51.7156 60.0168 51.5806 59.8261 51.423C59.6354 51.2599 59.4828 51.1023 59.3793 50.9391C59.2704 50.776 59.1886 50.6015 59.1233 50.4102C59.0579 50.2189 59.0197 50.0501 58.9979 49.9038C58.9816 49.7575 58.9707 49.5999 58.9707 49.4424V49.2173C58.9707 49.0541 58.9816 48.9022 58.9979 48.7559C59.0143 48.6096 59.0579 48.4408 59.1233 48.2495C59.1886 48.0582 59.2704 47.8837 59.3793 47.7262C59.4883 47.5686 59.6354 47.4111 59.8261 47.2535C60.0168 47.096 60.2401 46.9609 60.4907 46.854C60.7468 46.7471 61.0628 46.6571 61.4442 46.5896C61.8255 46.522 62.2451 46.4883 62.7027 46.4883H62.9261H62.9206ZM64.9092 49.268C64.9092 49.1273 64.8929 48.9979 64.8602 48.8741C64.8275 48.7503 64.7621 48.6209 64.6695 48.4914C64.5769 48.3564 64.4516 48.2439 64.299 48.1482C64.1465 48.0525 63.9394 47.9738 63.6779 47.9175C63.4654 47.8669 63.2203 47.8387 62.9479 47.8275C62.8879 47.8275 62.7626 47.8275 62.7245 47.8275C61.3788 47.8556 60.7032 48.3339 60.7032 49.2736V49.3636C60.7032 49.5437 60.7305 49.7068 60.7904 49.87C60.8503 50.0276 60.9484 50.1851 61.0955 50.3427C61.2371 50.5002 61.4605 50.624 61.7602 50.7197C62.038 50.8041 62.3649 50.8547 62.7517 50.8604C62.7844 50.8604 62.8716 50.8604 62.9206 50.8604C63.2802 50.8491 63.5853 50.8041 63.8468 50.7253C64.141 50.6353 64.3644 50.5115 64.5115 50.3539C64.6586 50.1964 64.7621 50.0388 64.822 49.8813C64.882 49.7237 64.9092 49.5549 64.9092 49.3749V49.2736V49.268Z" fill="black"/>
<path d="M69.0884 49.9217L66.2881 46.585H68.3203L69.9438 48.5881L71.5946 46.585H73.447L70.7229 49.9217V52.0261H69.083V49.9217H69.0884Z" fill="black"/>
<path d="M80.1577 52.0872H78.5287L78.0765 51.0912H74.6115L74.1593 52.0872H72.5303L75.1127 46.6348H77.5807L80.1632 52.0872H80.1577ZM75.1672 49.859H77.5153L76.6001 47.8558H76.0825L75.1672 49.859Z" fill="black"/>
<path d="M82.2291 46.585V50.7263H85.912V52.0993H80.5674V46.585H82.2291Z" fill="black"/>
<path d="M88.0693 52.0922H86.4131V46.5947H88.0693V52.0922Z" fill="black"/>
<path d="M90.8365 47.8904H88.5537V46.585H94.7973V47.8904H92.5091V52.0993H90.8365V47.8904Z" fill="black"/>
<path d="M97.6256 49.9217L94.8252 46.585H96.8574L98.4809 48.5881L100.132 46.585H101.984L99.26 49.9217V52.0261H97.6201V49.9217H97.6256Z" fill="black"/>
<path d="M108.108 50.0329H107.602V52.0979H106.087V46.6455H107.602V48.3955H108.174L110.075 46.6455H111.998L109.22 49.1382L112.129 52.0979H110.157L108.108 50.0329Z" fill="black"/>
<path d="M118.165 46.5681V47.8229H114.21V48.6388H118.073V49.8992H114.21V50.8052H118.236V52.0881H112.564V46.5625H118.165V46.5681Z" fill="black"/>
<path d="M124.571 46.5681V47.8229H120.616V48.6388H124.479V49.8992H120.616V50.8052H124.642V52.0881H118.971V46.5625H124.571V46.5681Z" fill="black"/>
<path d="M127.04 50.2593V52.0993H125.378V46.585H129.355C131.006 46.585 131.829 47.1814 131.829 48.3799V48.4531C131.829 49.6572 131.006 50.2593 129.355 50.2593H127.04ZM127.04 49.0214H129.328C129.84 49.0214 130.096 48.8301 130.096 48.4418V48.4193C130.096 48.0311 129.84 47.8341 129.328 47.8341H127.04V49.0214Z" fill="black"/>
<path d="M137.99 46.5681V47.8229H134.035V48.6388H137.898V49.8992H134.035V50.8052H138.061V52.0881H132.39V46.5625H137.99V46.5681Z" fill="black"/>
<path d="M144.78 50.6024V52.0991H143.271V51.1313C143.271 50.7937 143.194 50.5517 143.047 50.3998C142.895 50.2479 142.639 50.1747 142.274 50.1747H140.312V52.0991H138.809V46.6748H142.682C144.072 46.6748 144.769 47.1418 144.769 48.0815V48.1716C144.769 48.7455 144.469 49.1394 143.875 49.3588C144.148 49.4489 144.366 49.5952 144.535 49.7977C144.704 50.0059 144.785 50.2704 144.785 50.6024H144.78ZM143.189 48.4304C143.189 48.2728 143.14 48.149 143.042 48.0534C142.944 47.9577 142.791 47.9071 142.584 47.9071H140.307V48.9706H142.584C142.791 48.9706 142.944 48.9199 143.042 48.8243C143.14 48.7286 143.189 48.5992 143.189 48.436V48.4304Z" fill="black"/>
</g>
<defs>
<clipPath id="clip0_941_1016">
<rect width="157" height="64" fill="white"/>
</clipPath>
</defs>
</svg>
