<svg width="260" height="103" viewBox="0 0 260 103" fill="none" xmlns="http://www.w3.org/2000/svg">
<g clip-path="url(#clip0_306_31)">
<path d="M239.763 63.5439H20.2285V65.8894H239.763V63.5439Z" fill="black"/>
<path d="M256.256 3.74908V99.2509H3.73529V3.74908H256.256ZM259.991 0H0V103H260V0H259.991Z" fill="black"/>
<path d="M20.2285 19.1709H50.156C54.7935 19.1709 58.0777 19.9225 60.0175 21.4258C61.9574 22.929 62.9318 24.867 62.9318 27.2396V27.9006C62.9318 28.9783 62.7333 29.9472 62.3453 30.8166C61.9574 31.6859 61.425 32.3832 60.7754 32.9085C60.1258 33.4337 59.5213 33.8321 58.989 34.1219C58.4566 34.4027 57.9243 34.629 57.392 34.783C58.1409 34.9732 58.8807 35.2448 59.6025 35.589C60.3243 35.9331 61.1183 36.4311 62.0025 37.0832C62.8867 37.7352 63.5814 38.6226 64.1137 39.7637C64.646 40.9047 64.9077 42.1996 64.9077 43.6576V44.3187C64.9077 51.0924 60.0807 54.4792 50.4357 54.4792H20.2285V19.1709ZM31.1727 32.3651H48.2703C50.8056 32.3651 52.0778 31.4143 52.0778 29.5126V29.422C52.0778 27.5565 50.8056 26.6238 48.2703 26.6238H31.1727V32.3651ZM31.1727 39.8633V46.7909H49.2086C50.8327 46.7909 51.9605 46.4468 52.5921 45.7495C53.2146 45.0522 53.5304 44.2462 53.5304 43.3316V43.1414C53.5304 40.959 52.0868 39.8633 49.2086 39.8633H31.1727Z" fill="black"/>
<path d="M105.924 19.1709V27.1943H79.9034V32.4194H105.32V40.4881H79.9034V46.2838H106.402V54.4973H69.1035V19.1709H105.933H105.924Z" fill="black"/>
<path d="M122.146 19.3066V45.7766H146.371V54.5425H111.22V19.3066H122.137H122.146Z" fill="black"/>
<path d="M162.982 41.3391H159.662V54.5242H149.71V19.6777H159.662V30.8435H163.415L175.929 19.6777H188.57L170.299 35.5977L189.427 54.5242H176.453L162.991 41.3391H162.982Z" fill="black"/>
<path d="M239.762 54.4705H229.044L226.057 48.1043H203.267L200.28 54.4705H189.562L206.551 19.624H222.764L239.753 54.4705H239.762ZM206.939 40.2349H222.385L216.367 27.4391H212.957L206.939 40.2349Z" fill="black"/>
<path d="M20.2287 74.9456H27.7625C28.9264 74.9456 29.7565 75.1357 30.2437 75.5161C30.7309 75.8964 30.9745 76.3854 30.9745 76.9831V77.1461C30.9745 77.4178 30.9294 77.6623 30.8301 77.8796C30.7309 78.097 30.5955 78.2781 30.4331 78.4049C30.2707 78.5317 30.1174 78.6403 29.982 78.7128C29.8467 78.7852 29.7113 78.8395 29.576 78.8758C29.7655 78.921 29.955 78.9935 30.1354 79.075C30.3159 79.1656 30.5143 79.2923 30.7399 79.4553C30.9564 79.6183 31.1369 79.8447 31.2722 80.1345C31.4076 80.4243 31.4707 80.7503 31.4707 81.1125V81.2755C31.4707 82.978 30.2527 83.8293 27.8257 83.8293H20.2197V74.9365L20.2287 74.9456ZM22.9806 78.269H27.2843C27.9249 78.269 28.2407 78.0336 28.2407 77.5536V77.5265C28.2407 77.0556 27.9249 76.8201 27.2843 76.8201H22.9806V78.269ZM22.9806 80.1617V81.9094H27.5189C27.9249 81.9094 28.2136 81.8189 28.367 81.6468C28.5204 81.4748 28.6016 81.2665 28.6016 81.0401V80.9948C28.6016 80.4424 28.2407 80.1707 27.5099 80.1707H22.9716L22.9806 80.1617Z" fill="black"/>
<path d="M42.4423 81.4381V83.8469H39.9431V82.2893C39.9431 81.746 39.8168 81.3566 39.5732 81.1121C39.3205 80.8676 38.8965 80.7499 38.292 80.7499H35.0439V83.8469H32.5537V75.1172H38.9687C41.2694 75.1172 42.4243 75.8688 42.4243 77.3811V77.526C42.4243 78.4497 41.928 79.0836 40.9446 79.4368C41.3957 79.5817 41.7566 79.8171 42.0363 80.1431C42.316 80.4782 42.4513 80.9038 42.4513 81.4381H42.4423ZM39.8078 77.9426C39.8078 77.689 39.7266 77.4898 39.5642 77.3358C39.4017 77.1819 39.1491 77.1004 38.8063 77.1004H35.0349V78.8119H38.8063C39.1491 78.8119 39.4017 78.7304 39.5642 78.5765C39.7266 78.4225 39.8078 78.2143 39.8078 77.9516V77.9426Z" fill="black"/>
<path d="M55.5963 83.8287H52.8986L52.1497 82.2259H46.4114L45.6626 83.8287H42.9648L47.2415 75.0537H51.3287L55.6053 83.8287H55.5963ZM47.3317 80.2427H51.2204L49.7046 77.0188H48.8475L47.3317 80.2427Z" fill="black"/>
<path d="M59.3411 74.9727L64.944 80.551V74.9727H67.6598V83.8473H64.944L58.9892 77.9701V83.8473H56.2734V74.9727H59.3411Z" fill="black"/>
<path d="M74.8776 74.9456C75.6986 74.9456 76.4384 74.9999 77.0971 75.1086C77.7557 75.2173 78.3151 75.3803 78.7572 75.5885C79.1993 75.7968 79.5783 76.0323 79.8941 76.2949C80.2098 76.5575 80.4534 76.8473 80.6158 77.1733C80.7783 77.4993 80.9046 77.8253 80.9767 78.1332C81.0489 78.4502 81.085 78.7852 81.085 79.1474V79.5097C81.085 79.9353 81.0399 80.3247 80.9407 80.696C80.8504 81.0673 80.661 81.4476 80.3813 81.8461C80.1016 82.2445 79.7407 82.5796 79.2986 82.8603C78.8565 83.141 78.261 83.3674 77.5031 83.5576C76.7452 83.7387 75.8791 83.8293 74.8866 83.8293H69.04V74.9365H74.8685L74.8776 74.9456ZM71.8009 81.7012H74.661C77.0159 81.7012 78.1978 80.9405 78.1978 79.4101V79.3376C78.1978 77.8163 77.0159 77.0556 74.661 77.0556H71.8009V81.7012Z" fill="black"/>
<path d="M91.0458 74.9727V81.6377H97.145V83.8473H88.2939V74.9727H91.0458Z" fill="black"/>
<path d="M104.2 74.8184C104.967 74.8184 105.653 74.8727 106.276 74.9814C106.898 75.09 107.421 75.2259 107.837 75.407C108.261 75.579 108.621 75.7964 108.937 76.0499C109.253 76.3035 109.497 76.5571 109.677 76.8106C109.858 77.0642 110.002 77.3449 110.11 77.6437C110.218 77.9426 110.291 78.2143 110.327 78.4588C110.354 78.6942 110.372 78.9478 110.372 79.2104V79.5726C110.372 79.8262 110.354 80.0707 110.327 80.3152C110.3 80.5597 110.227 80.8223 110.11 81.1302C110.002 81.4381 109.858 81.7188 109.686 81.9814C109.515 82.2441 109.271 82.4976 108.946 82.7602C108.63 83.0229 108.261 83.2402 107.846 83.4123C107.43 83.5934 106.907 83.7383 106.285 83.8469C105.662 83.9556 104.967 84.0099 104.2 84.0099H103.831C103.064 84.0099 102.369 83.9556 101.746 83.8469C101.115 83.7383 100.591 83.5934 100.176 83.4123C99.7614 83.2311 99.3915 83.0138 99.0757 82.7602C98.7599 82.4976 98.5073 82.2441 98.3359 81.9814C98.1554 81.7188 98.0201 81.4381 97.9118 81.1302C97.8035 80.8223 97.7404 80.5506 97.7043 80.3152C97.6772 80.0797 97.6592 79.8262 97.6592 79.5726V79.2104C97.6592 78.9478 97.6772 78.7033 97.7043 78.4678C97.7314 78.2324 97.8035 77.9607 97.9118 77.6528C98.0201 77.3449 98.1554 77.0642 98.3359 76.8106C98.5163 76.5571 98.7599 76.3035 99.0757 76.0499C99.3915 75.7964 99.7614 75.579 100.176 75.407C100.6 75.2349 101.124 75.09 101.755 74.9814C102.387 74.8727 103.082 74.8184 103.84 74.8184H104.209H104.2ZM107.494 79.2919C107.494 79.0655 107.467 78.8572 107.412 78.658C107.358 78.4588 107.25 78.2505 107.097 78.0422C106.943 77.8249 106.736 77.6437 106.483 77.4898C106.231 77.3359 105.888 77.2091 105.455 77.1185C105.103 77.037 104.697 76.9917 104.246 76.9736C104.146 76.9736 103.939 76.9736 103.876 76.9736C101.647 77.0189 100.528 77.7886 100.528 79.3009V79.4458C100.528 79.7356 100.573 79.9982 100.673 80.2609C100.772 80.5144 100.934 80.768 101.178 81.0215C101.413 81.2751 101.782 81.4743 102.279 81.6283C102.739 81.7641 103.28 81.8456 103.921 81.8547C103.975 81.8547 104.119 81.8547 104.2 81.8547C104.796 81.8366 105.301 81.7641 105.734 81.6373C106.221 81.4924 106.591 81.2932 106.835 81.0396C107.079 80.7861 107.25 80.5325 107.349 80.279C107.449 80.0254 107.494 79.7537 107.494 79.464V79.3009V79.2919Z" fill="black"/>
<path d="M114.414 80.3427L109.776 74.9727H113.142L115.83 78.1965L118.564 74.9727H121.632L117.121 80.3427V83.7296H114.405V80.3427H114.414Z" fill="black"/>
<path d="M132.748 83.8287H130.05L129.301 82.2259H123.563L122.814 83.8287H120.116L124.393 75.0537H128.48L132.757 83.8287H132.748ZM124.483 80.2427H128.372L126.856 77.0188H125.999L124.483 80.2427Z" fill="black"/>
<path d="M136.177 74.9727V81.6377H142.276V83.8473H133.425V74.9727H136.177Z" fill="black"/>
<path d="M145.848 83.8377H143.105V74.9902H145.848V83.8377Z" fill="black"/>
<path d="M150.432 77.0736H146.651V74.9727H156.991V77.0736H153.202V83.8473H150.432V77.0736Z" fill="black"/>
<path d="M161.674 80.3427L157.036 74.9727H160.402L163.09 78.1965L165.824 74.9727H168.892L164.38 80.3427V83.7296H161.665V80.3427H161.674Z" fill="black"/>
<path d="M179.033 80.5238H178.194V83.8473H175.686V75.0723H178.194V77.8886H179.141L182.29 75.0723H185.475L180.873 79.084L185.691 83.8473H182.425L179.033 80.5238Z" fill="black"/>
<path d="M195.688 74.9456V76.965H189.138V78.2781H195.535V80.3066H189.138V81.7646H195.805V83.8293H186.413V74.9365H195.688V74.9456Z" fill="black"/>
<path d="M206.299 74.9456V76.965H199.748V78.2781H206.145V80.3066H199.748V81.7646H206.416V83.8293H197.023V74.9365H206.299V74.9456Z" fill="black"/>
<path d="M210.386 80.8861V83.8473H207.634V74.9727H214.22C216.954 74.9727 218.316 75.9326 218.316 77.8614V77.9792C218.316 79.9171 216.954 80.8861 214.22 80.8861H210.386ZM210.386 78.8938H214.175C215.023 78.8938 215.447 78.5859 215.447 77.961V77.9248C215.447 77.3 215.023 76.983 214.175 76.983H210.386V78.8938Z" fill="black"/>
<path d="M228.521 74.9456V76.965H221.971V78.2781H228.368V80.3066H221.971V81.7646H228.638V83.8293H219.246V74.9365H228.521V74.9456Z" fill="black"/>
<path d="M239.763 81.4381V83.8469H237.263V82.2893C237.263 81.746 237.137 81.3566 236.893 81.1121C236.641 80.8676 236.217 80.7499 235.612 80.7499H232.364V83.8469H229.874V75.1172H236.289C238.59 75.1172 239.745 75.8688 239.745 77.3811V77.526C239.745 78.4497 239.248 79.0836 238.265 79.4368C238.716 79.5817 239.077 79.8171 239.357 80.1431C239.636 80.4782 239.772 80.9038 239.772 81.4381H239.763ZM237.128 77.9426C237.128 77.689 237.047 77.4898 236.884 77.3358C236.722 77.1819 236.469 77.1004 236.127 77.1004H232.355V78.8119H236.127C236.469 78.8119 236.722 78.7304 236.884 78.5765C237.047 78.4225 237.128 78.2143 237.128 77.9516V77.9426Z" fill="black"/>
</g>
<defs>
<clipPath id="clip0_306_31">
<rect width="260" height="103" fill="white"/>
</clipPath>
</defs>
</svg>
