<svg width="117" height="48" viewBox="0 0 117 48" fill="none" xmlns="http://www.w3.org/2000/svg">
<g clip-path="url(#clip0_533_491)">
<path d="M107.893 29.6123H9.10254V30.7053H107.893V29.6123Z" fill="black"/>
<path d="M115.315 1.74714V46.2529H1.68088V1.74714H115.315ZM116.996 0H0V48H117V0H116.996Z" fill="black"/>
<path d="M9.10254 8.93457H22.5699C24.6568 8.93457 26.1347 9.28484 27.0076 9.98539C27.8805 10.6859 28.319 11.589 28.319 12.6947V13.0028C28.319 13.505 28.2297 13.9565 28.0551 14.3617C27.8805 14.7668 27.641 15.0918 27.3486 15.3365C27.0563 15.5813 26.7843 15.767 26.5447 15.902C26.3052 16.0329 26.0657 16.1384 25.8261 16.2101C26.1631 16.2987 26.496 16.4253 26.8208 16.5857C27.1456 16.7461 27.5029 16.9782 27.9008 17.282C28.2987 17.5859 28.6113 17.9995 28.8509 18.5312C29.0904 19.0629 29.2082 19.6664 29.2082 20.3459V20.6539C29.2082 23.8106 27.036 25.3889 22.6958 25.3889H9.10254V8.93457ZM14.0274 15.0833H21.7213C22.8622 15.0833 23.4347 14.6402 23.4347 13.754V13.7118C23.4347 12.8424 22.8622 12.4078 21.7213 12.4078H14.0274V15.0833ZM14.0274 18.5776V21.806H22.1436C22.8744 21.806 23.3819 21.6457 23.6661 21.3207C23.9463 20.9958 24.0884 20.6202 24.0884 20.1939V20.1053C24.0884 19.0883 23.4388 18.5776 22.1436 18.5776H14.0274Z" fill="black"/>
<path d="M47.666 8.93457V12.6736H35.9566V15.1087H47.3939V18.8688H35.9566V21.5697H47.8811V25.3974H31.0967V8.93457H47.67H47.666Z" fill="black"/>
<path d="M54.9646 8.99707V21.3326H65.866V25.4177H50.0479V8.99707H54.9606H54.9646Z" fill="black"/>
<path d="M73.3416 19.2655H71.8474V25.41H67.3691V9.1709H71.8474V14.3743H73.5364L79.1678 9.1709H84.856L76.6343 16.5899L85.2417 25.41H79.4033L73.3456 19.2655H73.3416Z" fill="black"/>
<path d="M107.893 25.3847H103.07L101.726 22.4179H91.47L90.1261 25.3847H85.3027L92.9479 9.14551H100.244L107.889 25.3847H107.893ZM93.1225 18.7506H100.073L97.3653 12.7875H95.8306L93.1225 18.7506Z" fill="black"/>
<path d="M9.10269 34.9261H12.4929C13.0166 34.9261 13.3902 35.0147 13.6094 35.192C13.8287 35.3692 13.9383 35.5971 13.9383 35.8756V35.9516C13.9383 36.0782 13.918 36.1921 13.8733 36.2934C13.8287 36.3947 13.7678 36.4791 13.6947 36.5382C13.6216 36.5973 13.5526 36.6479 13.4917 36.6817C13.4308 36.7154 13.3699 36.7408 13.309 36.7576C13.3942 36.7787 13.4795 36.8125 13.5607 36.8505C13.6419 36.8927 13.7312 36.9518 13.8327 37.0277C13.9302 37.1037 14.0114 37.2092 14.0723 37.3442C14.1332 37.4793 14.1616 37.6312 14.1616 37.8V37.876C14.1616 38.6694 13.6135 39.0661 12.5213 39.0661H9.09863V34.9219L9.10269 34.9261ZM10.341 36.4749H12.2777C12.566 36.4749 12.7081 36.3652 12.7081 36.1415V36.1288C12.7081 35.9094 12.566 35.7997 12.2777 35.7997H10.341V36.4749ZM10.341 37.3569V38.1714H12.3833C12.566 38.1714 12.6959 38.1292 12.7649 38.049C12.8339 37.9688 12.8705 37.8718 12.8705 37.7663V37.7452C12.8705 37.4877 12.7081 37.3611 12.3792 37.3611H10.337L10.341 37.3569Z" fill="black"/>
<path d="M19.0993 37.9515V39.0741H17.9746V38.3482C17.9746 38.095 17.9178 37.9135 17.8082 37.7996C17.6945 37.6857 17.5037 37.6308 17.2316 37.6308H15.77V39.0741H14.6494V35.0059H17.5361C18.5715 35.0059 19.0912 35.3561 19.0912 36.0609V36.1284C19.0912 36.5589 18.8679 36.8543 18.4253 37.0189C18.6283 37.0864 18.7907 37.1961 18.9166 37.348C19.0424 37.5042 19.1033 37.7025 19.1033 37.9515H19.0993ZM17.9137 36.3225C17.9137 36.2044 17.8772 36.1115 17.8041 36.0398C17.731 35.9681 17.6173 35.9301 17.4631 35.9301H15.7659V36.7277H17.4631C17.6173 36.7277 17.731 36.6897 17.8041 36.618C17.8772 36.5462 17.9137 36.4492 17.9137 36.3268V36.3225Z" fill="black"/>
<path d="M25.0181 39.0649H23.8042L23.4672 38.3179H20.8849L20.548 39.0649H19.334L21.2585 34.9756H23.0977L25.0222 39.0649H25.0181ZM21.2991 37.3937H23.049L22.3669 35.8914H21.9812L21.2991 37.3937Z" fill="black"/>
<path d="M26.7037 34.9385L29.225 37.5381V34.9385H30.4471V39.0742H29.225L26.5453 36.3353V39.0742H25.3232V34.9385H26.7037Z" fill="black"/>
<path d="M33.6943 34.9261C34.0637 34.9261 34.3967 34.9514 34.6931 35.0021C34.9894 35.0527 35.2412 35.1287 35.4401 35.2257C35.6391 35.3228 35.8096 35.4325 35.9517 35.5549C36.0938 35.6773 36.2034 35.8123 36.2765 35.9643C36.3496 36.1162 36.4064 36.2681 36.4389 36.4116C36.4714 36.5593 36.4876 36.7154 36.4876 36.8842V37.0531C36.4876 37.2514 36.4673 37.4329 36.4227 37.6059C36.3821 37.7789 36.2968 37.9562 36.1709 38.1418C36.0451 38.3275 35.8827 38.4837 35.6837 38.6145C35.4848 38.7453 35.2168 38.8508 34.8758 38.9395C34.5347 39.0239 34.1449 39.0661 33.6983 39.0661H31.0674V34.9219H33.6902L33.6943 34.9261ZM32.3098 38.0743H33.5968C34.6565 38.0743 35.1884 37.7198 35.1884 37.0066V36.9729C35.1884 36.2639 34.6565 35.9094 33.5968 35.9094H32.3098V38.0743Z" fill="black"/>
<path d="M40.9698 34.9385V38.0445H43.7144V39.0742H39.7314V34.9385H40.9698Z" fill="black"/>
<path d="M46.8899 34.8662C47.235 34.8662 47.5435 34.8915 47.8237 34.9422C48.1038 34.9928 48.3393 35.0561 48.5261 35.1405C48.7169 35.2207 48.8793 35.322 49.0214 35.4402C49.1635 35.5583 49.2731 35.6765 49.3543 35.7946C49.4355 35.9128 49.5005 36.0436 49.5492 36.1829C49.598 36.3222 49.6304 36.4488 49.6467 36.5627C49.6589 36.6724 49.667 36.7906 49.667 36.913V37.0818C49.667 37.2 49.6589 37.3139 49.6467 37.4278C49.6345 37.5418 49.602 37.6642 49.5492 37.8077C49.5005 37.9511 49.4355 38.082 49.3584 38.2043C49.2813 38.3267 49.1716 38.4449 49.0255 38.5673C48.8834 38.6897 48.7169 38.791 48.5301 38.8711C48.3434 38.9555 48.1079 39.0231 47.8278 39.0737C47.5476 39.1243 47.235 39.1497 46.8899 39.1497H46.7234C46.3783 39.1497 46.0657 39.1243 45.7855 39.0737C45.5013 39.0231 45.2658 38.9555 45.0791 38.8711C44.8923 38.7867 44.7258 38.6854 44.5837 38.5673C44.4416 38.4449 44.3279 38.3267 44.2508 38.2043C44.1696 38.082 44.1087 37.9511 44.06 37.8077C44.0113 37.6642 43.9828 37.5376 43.9666 37.4278C43.9544 37.3181 43.9463 37.2 43.9463 37.0818V36.913C43.9463 36.7906 43.9544 36.6767 43.9666 36.5669C43.9788 36.4572 44.0113 36.3306 44.06 36.1871C44.1087 36.0436 44.1696 35.9128 44.2508 35.7946C44.332 35.6765 44.4416 35.5583 44.5837 35.4402C44.7258 35.322 44.8923 35.2207 45.0791 35.1405C45.2699 35.0603 45.5054 34.9928 45.7896 34.9422C46.0738 34.8915 46.3864 34.8662 46.7275 34.8662H46.8939H46.8899ZM48.3718 36.951C48.3718 36.8455 48.3596 36.7484 48.3353 36.6556C48.3109 36.5627 48.2622 36.4656 48.1932 36.3686C48.1241 36.2673 48.0308 36.1829 47.9171 36.1112C47.8034 36.0394 47.6491 35.9803 47.4542 35.9381C47.2959 35.9001 47.1132 35.879 46.9102 35.8706C46.8655 35.8706 46.7721 35.8706 46.7437 35.8706C45.7409 35.8917 45.2374 36.2504 45.2374 36.9552V37.0227C45.2374 37.1578 45.2577 37.2801 45.3024 37.4025C45.347 37.5207 45.4201 37.6388 45.5297 37.757C45.6353 37.8752 45.8018 37.968 46.0251 38.0398C46.2321 38.1031 46.4757 38.141 46.764 38.1453C46.7884 38.1453 46.8533 38.1453 46.8899 38.1453C47.1578 38.1368 47.3852 38.1031 47.5801 38.044C47.7993 37.9765 47.9658 37.8836 48.0754 37.7655C48.185 37.6473 48.2622 37.5291 48.3068 37.411C48.3515 37.2928 48.3718 37.1662 48.3718 37.0311V36.9552V36.951Z" fill="black"/>
<path d="M51.4863 37.441L49.3994 34.9385H50.9138L52.1237 36.4408L53.354 34.9385H54.7344L52.7043 37.441V39.0194H51.4822V37.441H51.4863Z" fill="black"/>
<path d="M59.7359 39.0649H58.5219L58.1849 38.3179H55.6027L55.2657 39.0649H54.0518L55.9762 34.9756H57.8155L59.74 39.0649H59.7359ZM56.0168 37.3937H57.7667L57.0847 35.8914H56.6989L56.0168 37.3937Z" fill="black"/>
<path d="M61.2793 34.9385V38.0445H64.024V39.0742H60.041V34.9385H61.2793Z" fill="black"/>
<path d="M65.6317 39.0694H64.3975V34.9463H65.6317V39.0694Z" fill="black"/>
<path d="M67.6934 35.9176H65.9922V34.9385H70.6451V35.9176H68.9398V39.0742H67.6934V35.9176Z" fill="black"/>
<path d="M72.7529 37.441L70.666 34.9385H72.1804L73.3903 36.4408L74.6206 34.9385H76.001L73.9709 37.441V39.0194H72.7488V37.441H72.7529Z" fill="black"/>
<path d="M80.5649 37.5249H80.1873V39.0737H79.0586V34.9844H80.1873V36.2968H80.6136L82.0306 34.9844H83.4638L81.3932 36.8539L83.5612 39.0737H82.0915L80.5649 37.5249Z" fill="black"/>
<path d="M88.0595 34.9261V35.8672H85.1119V36.4791H87.9905V37.4244H85.1119V38.1039H88.1123V39.0661H83.8857V34.9219H88.0595V34.9261Z" fill="black"/>
<path d="M92.8339 34.9261V35.8672H89.8863V36.4791H92.7649V37.4244H89.8863V38.1039H92.8867V39.0661H88.6602V34.9219H92.8339V34.9261Z" fill="black"/>
<path d="M94.6729 37.6942V39.0742H93.4346V34.9385H96.3984C97.6287 34.9385 98.2417 35.3858 98.2417 36.2847V36.3396C98.2417 37.2427 97.6287 37.6942 96.3984 37.6942H94.6729ZM94.6729 36.7658H96.3781C96.7598 36.7658 96.9506 36.6223 96.9506 36.3311V36.3142C96.9506 36.0231 96.7598 35.8754 96.3781 35.8754H94.6729V36.7658Z" fill="black"/>
<path d="M102.834 34.9261V35.8672H99.8863V36.4791H102.765V37.4244H99.8863V38.1039H102.887V39.0661H98.6602V34.9219H102.834V34.9261Z" fill="black"/>
<path d="M107.893 37.9515V39.0741H106.769V38.3482C106.769 38.095 106.712 37.9135 106.602 37.7996C106.488 37.6857 106.298 37.6308 106.026 37.6308H104.564V39.0741H103.443V35.0059H106.33C107.365 35.0059 107.885 35.3561 107.885 36.0609V36.1284C107.885 36.5589 107.662 36.8543 107.219 37.0189C107.422 37.0864 107.585 37.1961 107.711 37.348C107.836 37.5042 107.897 37.7025 107.897 37.9515H107.893ZM106.708 36.3225C106.708 36.2044 106.671 36.1115 106.598 36.0398C106.525 35.9681 106.411 35.9301 106.257 35.9301H104.56V36.7277H106.257C106.411 36.7277 106.525 36.6897 106.598 36.618C106.671 36.5462 106.708 36.4492 106.708 36.3268V36.3225Z" fill="black"/>
</g>
<defs>
<clipPath id="clip0_533_491">
<rect width="117" height="48" fill="white"/>
</clipPath>
</defs>
</svg>
