<svg width="149" height="25" viewBox="0 0 149 25" fill="none" xmlns="http://www.w3.org/2000/svg">
<g clip-path="url(#clip0_40_60)">
<path d="M0 0.542236H20.3066C23.4545 0.542236 25.6865 1.05172 27.0027 2.06462C28.3189 3.08359 28.98 4.3937 28.98 5.99493V6.44377C28.98 7.1716 28.8465 7.82665 28.5797 8.41499C28.3128 9.00332 27.9549 9.47641 27.5122 9.8282C27.0694 10.18 26.663 10.4529 26.2991 10.647C25.9352 10.8411 25.5773 10.9867 25.2134 11.0958C25.7229 11.2232 26.2203 11.4052 26.7116 11.6417C27.2028 11.8783 27.7427 12.2119 28.3371 12.6546C28.9315 13.0913 29.4106 13.6979 29.7745 14.4681C30.1384 15.2384 30.3143 16.1179 30.3143 17.1005V17.5493C30.3143 22.1286 27.0391 24.4213 20.4946 24.4213H0V0.542236ZM7.42998 9.46428H19.0329C20.7554 9.46428 21.6167 8.82136 21.6167 7.53552V7.4688C21.6167 6.20722 20.7554 5.57643 19.0329 5.57643H7.42998V9.45822V9.46428ZM7.42998 14.5349V19.2233H19.6758C20.7797 19.2233 21.5439 18.9868 21.9685 18.5198C22.3931 18.0467 22.6053 17.5008 22.6053 16.8821V16.7548C22.6053 15.2809 21.6288 14.5409 19.6697 14.5409H7.42998V14.5349Z" fill="white"/>
<path d="M58.1543 0.542236V5.96461H40.4921V9.49461H57.7418V14.9534H40.4921V18.8716H58.4757V24.4274H33.1592V0.542236H58.1543Z" fill="white"/>
<path d="M69.1745 0.627197V18.5319H85.6175V24.4577H61.7627V0.627197H69.1745Z" fill="white"/>
<path d="M96.8808 15.5296H94.6306V24.4456H87.8799V0.881958H94.6306V8.43325H97.178L105.669 0.881958H114.246L101.842 11.6479L114.822 24.4456H106.015L96.8808 15.5296Z" fill="white"/>
<path d="M149 24.4091H141.728L139.702 20.1028H124.236L122.21 24.4091H114.938L126.462 0.845459H137.47L149 24.4091ZM126.722 14.7835H137.209L133.121 6.12833H130.81L126.722 14.7835Z" fill="white"/>
</g>
<defs>
<clipPath id="clip0_40_60">
<rect width="149" height="23.9155" fill="white" transform="translate(0 0.542236)"/>
</clipPath>
</defs>
</svg>
