<svg width="291" height="174" viewBox="0 0 291 174" fill="none" xmlns="http://www.w3.org/2000/svg">
<path d="M158 174C245.261 174 316 103.261 316 16C316 -71.261 245.261 -142 158 -142C70.739 -142 0 -71.261 0 16C0 103.261 70.739 174 158 174Z" fill="#FC631B"/>
<path d="M156.354 117.611C213.62 117.611 260.042 71.1889 260.042 13.9238C260.042 -43.3412 213.62 -89.7637 156.354 -89.7637C99.0895 -89.7637 52.667 -43.3412 52.667 13.9238C52.667 71.1889 99.0895 117.611 156.354 117.611Z" fill="#FF9B6C"/>
<path d="M157.18 66.1758C185.812 66.1758 209.023 42.9645 209.023 14.332C209.023 -14.3005 185.812 -37.5117 157.18 -37.5117C128.547 -37.5117 105.336 -14.3005 105.336 14.332C105.336 42.9645 128.547 66.1758 157.18 66.1758Z" fill="white"/>
</svg>
